<?xml version="1.0" standalone="no"?>
<!DOCTYPE svg PUBLIC "-//W3C//DTD SVG 20010904//EN"
 "http://www.w3.org/TR/2001/REC-SVG-20010904/DTD/svg10.dtd">
<svg version="1.0" xmlns="http://www.w3.org/2000/svg"
 width="1280.000000pt" height="1266.000000pt" viewBox="0 0 1280.000000 1266.000000"
 preserveAspectRatio="xMidYMid meet">
<g transform="translate(0.000000,1266.000000) scale(0.100000,-0.100000)"
fill="#000000" stroke="none">
<path d="M8215 12630 c-66 -15 -165 -46 -220 -67 -77 -31 -133 -45 -245 -61
-370 -55 -598 -56 -885 -4 -33 6 -50 3 -95 -20 -30 -15 -60 -28 -67 -28 -6 0
-29 -16 -50 -36 -43 -42 -502 -353 -638 -433 -136 -81 -245 -128 -373 -161
-228 -59 -373 -157 -421 -285 -61 -161 -66 -375 -14 -585 34 -139 99 -242 176
-282 23 -11 48 -29 55 -40 8 -10 33 -28 58 -39 37 -18 44 -26 49 -57 16 -103
43 -182 115 -337 101 -219 112 -254 113 -345 1 -69 -2 -83 -47 -180 -35 -74
-50 -121 -54 -165 -3 -36 -12 -69 -23 -84 -11 -13 -19 -32 -19 -42 0 -10 -9
-24 -20 -32 -14 -9 -29 -52 -54 -148 -35 -139 -80 -266 -210 -599 -42 -107
-76 -208 -76 -223 0 -20 -15 -46 -50 -85 -62 -69 -140 -224 -175 -347 -45
-158 -57 -256 -61 -495 -3 -124 -6 -230 -8 -237 -3 -6 -22 -14 -44 -18 -21 -3
-53 -15 -70 -25 l-31 -19 5 -198 c6 -245 8 -253 43 -287 39 -37 79 -130 97
-224 54 -281 54 -281 132 -432 95 -185 112 -234 112 -326 0 -60 -7 -94 -42
-191 -23 -65 -54 -138 -68 -163 -33 -57 -73 -155 -96 -240 -29 -102 -26 -373
5 -500 51 -207 125 -383 256 -615 42 -74 88 -163 102 -200 22 -56 29 -67 54
-72 39 -7 73 -48 154 -184 91 -152 137 -212 189 -251 30 -23 77 -84 155 -204
62 -94 132 -193 155 -220 49 -55 75 -104 150 -278 83 -191 150 -280 246 -326
25 -12 52 -25 60 -29 8 -4 17 -21 21 -37 3 -16 11 -39 17 -51 7 -12 9 -28 6
-37 -11 -30 -174 -72 -519 -136 -264 -49 -425 -84 -500 -110 -44 -15 -72 -18
-138 -14 -52 4 -120 0 -186 -10 -153 -23 -167 -22 -213 20 -41 36 -110 73
-139 74 -8 0 -26 11 -39 25 -49 52 -158 109 -310 162 -25 9 -65 30 -89 47 -63
45 -135 43 -254 -7 -85 -36 -147 -47 -147 -27 0 26 44 93 105 160 87 94 121
150 136 219 7 31 29 85 50 121 55 94 83 175 123 360 50 231 65 281 92 313 60
72 106 208 125 372 l11 100 -40 65 c-22 36 -63 120 -92 185 -68 157 -110 232
-157 277 -38 36 -88 63 -102 53 -14 -8 8 -124 37 -199 16 -41 58 -120 94 -177
91 -146 112 -188 109 -229 -3 -65 -51 -244 -137 -512 -102 -319 -142 -475
-150 -583 -6 -77 -8 -82 -49 -125 -23 -25 -111 -126 -195 -225 -190 -222 -289
-334 -400 -450 -48 -49 -93 -99 -101 -110 -8 -11 -39 -38 -69 -59 -82 -59
-283 -240 -313 -283 -39 -56 -69 -130 -65 -161 2 -22 9 -28 36 -30 64 -6 130
71 153 178 13 63 34 89 149 184 95 78 123 96 154 96 13 0 36 6 51 14 24 13 32
11 100 -20 41 -19 104 -42 142 -51 98 -24 315 -22 528 5 282 36 248 38 305
-13 58 -51 119 -117 275 -295 197 -223 252 -275 335 -314 174 -82 358 -95 596
-40 167 38 396 138 554 243 94 62 209 157 217 179 10 27 35 41 70 42 26 0 36
6 48 30 21 41 75 54 194 45 67 -5 107 -13 135 -29 38 -19 54 -21 193 -18 94 2
161 -1 173 -8 12 -6 27 -35 39 -75 27 -86 44 -117 82 -149 39 -33 60 -30 71 9
12 44 -6 121 -52 229 -22 52 -40 99 -40 104 0 5 -7 15 -15 22 -12 10 -24 9
-60 -5 -54 -20 -75 -10 -75 37 0 75 44 93 202 83 l110 -7 67 -67 c40 -41 89
-79 124 -96 31 -15 60 -31 63 -36 9 -15 44 -10 50 6 7 18 -21 92 -44 119 -10
10 -41 36 -69 58 -52 38 -89 90 -78 108 10 16 68 12 136 -10 67 -21 103 -46
238 -167 95 -85 145 -113 215 -119 71 -7 83 3 67 57 -13 44 -40 74 -124 142
-77 62 -82 74 -56 143 32 84 123 172 264 254 61 35 128 75 150 90 37 25 49 28
175 33 294 11 466 75 896 330 143 84 224 138 224 148 0 30 -45 83 -78 93 -30
8 -46 3 -163 -57 -72 -37 -138 -67 -148 -67 -9 0 -38 -20 -65 -45 -60 -58
-139 -97 -289 -146 l-119 -39 -25 20 c-21 17 -41 20 -115 20 -110 0 -103 3
-394 -189 -165 -110 -245 -156 -310 -181 -73 -27 -95 -41 -133 -83 -97 -107
-128 -136 -154 -142 -39 -10 -116 31 -141 74 l-19 34 22 43 c24 45 168 223
331 410 52 60 104 121 115 135 11 14 38 34 60 45 37 18 40 22 39 59 0 22 -4
60 -9 84 l-8 43 104 102 c229 223 387 407 518 603 33 51 61 99 61 108 0 36
277 392 569 731 272 317 469 524 499 524 5 0 38 23 73 51 35 29 94 72 132 96
l67 44 0 97 c0 53 7 158 16 232 9 74 17 200 18 280 l1 145 52 -1 c62 -2 137
-41 147 -76 4 -13 11 -111 16 -218 12 -266 18 -326 41 -394 11 -32 18 -64 15
-72 -8 -21 -120 -92 -280 -177 -191 -101 -279 -160 -344 -232 -51 -56 -62 -75
-42 -75 16 0 50 -62 50 -92 0 -20 -12 -37 -47 -65 -27 -21 -70 -61 -98 -89
-31 -32 -79 -66 -125 -89 -101 -50 -164 -99 -211 -164 -41 -58 -50 -100 -23
-121 8 -8 19 -22 25 -31 21 -40 -1 -67 -134 -166 -166 -124 -238 -187 -304
-265 -53 -62 -67 -98 -37 -98 8 0 61 47 117 104 105 107 358 304 432 336 49
22 149 92 205 144 23 21 87 62 143 90 56 29 150 80 209 114 162 94 312 166
418 201 103 35 121 46 114 66 -11 26 -37 25 -139 -9 -117 -40 -242 -100 -458
-223 -196 -111 -271 -146 -297 -138 -29 9 -25 20 28 81 32 37 73 68 130 100
46 25 147 86 225 136 78 50 182 115 230 146 49 30 91 62 94 70 4 8 -2 36 -12
63 -16 46 -16 51 0 75 25 38 100 81 154 89 55 7 124 -7 291 -62 135 -45 142
-55 85 -122 -46 -56 -46 -98 0 -235 22 -66 35 -124 35 -156 0 -45 4 -54 32
-78 17 -15 44 -54 59 -88 15 -34 39 -75 54 -92 86 -103 55 -196 -75 -221 -326
-62 -818 -230 -1515 -519 -113 -47 -143 -70 -115 -87 6 -4 126 41 268 98 258
105 1102 397 1281 444 65 16 132 26 206 28 137 5 315 48 315 76 0 6 -20 30
-45 54 -50 49 -63 84 -46 122 12 25 13 26 94 19 295 -23 344 -20 409 25 30 21
65 89 70 134 l3 30 -260 -3 c-143 -1 -277 1 -299 5 -36 8 -39 11 -56 63 -9 30
-51 127 -93 215 -42 88 -84 192 -93 230 -35 152 -44 176 -86 221 -41 45 -108
74 -168 74 -50 0 -129 30 -159 61 -19 18 -37 53 -47 86 -14 49 -15 66 -3 152
9 59 14 187 14 329 l0 234 32 28 c41 37 47 48 78 159 35 126 119 360 162 449
19 41 63 111 98 157 94 123 100 137 99 230 -2 84 -26 190 -104 440 -46 148
-69 251 -77 345 -6 62 -8 68 -62 125 -31 33 -85 98 -121 144 -71 92 -143 152
-210 176 -54 19 -60 28 -60 84 0 123 98 202 304 247 102 23 405 29 683 14
l237 -12 51 58 c27 32 110 124 184 204 127 137 226 260 262 327 9 16 48 50 86
76 118 79 184 166 213 282 11 45 10 55 -8 97 -12 26 -44 79 -71 119 -35 49
-52 85 -57 117 -6 41 -17 58 -85 129 -95 101 -154 189 -299 448 -62 110 -153
261 -203 335 -97 145 -132 214 -148 291 -8 39 -17 53 -39 64 -34 18 -72 78
-100 159 -29 86 -154 301 -274 471 -132 188 -400 444 -611 584 -254 168 -387
218 -553 209 -48 -3 -130 -2 -182 3 -52 4 -219 13 -370 19 -466 18 -662 39
-885 95 -72 18 -164 47 -204 65 -93 40 -251 80 -316 79 -27 -1 -104 -14 -170
-29z m476 -145 c36 -23 83 -52 105 -63 70 -35 227 -90 306 -106 124 -26 369
-48 583 -53 204 -5 349 7 502 42 57 13 68 13 145 -7 107 -27 234 -83 350 -155
211 -130 351 -213 359 -213 5 0 22 -26 38 -57 17 -32 39 -71 50 -87 30 -44
111 -125 157 -157 36 -24 55 -54 132 -201 49 -95 137 -257 196 -360 101 -180
177 -308 638 -1073 252 -419 368 -625 368 -654 0 -13 -26 -49 -65 -91 -52 -56
-65 -76 -65 -101 0 -35 -24 -69 -49 -69 -9 0 -111 -97 -227 -215 l-211 -216
-199 -3 c-109 -2 -294 -13 -409 -25 -126 -13 -258 -21 -330 -19 l-120 3 1 95
c1 52 5 147 10 210 l9 115 37 18 c78 38 188 50 426 45 183 -4 226 -8 239 -20
20 -20 6 -47 -53 -105 -41 -39 -47 -42 -136 -53 -114 -14 -199 -35 -251 -61
-33 -18 -37 -22 -25 -36 50 -61 233 -56 366 10 26 14 71 27 99 30 186 21 302
186 234 332 -34 75 -49 81 -246 117 -161 29 -201 32 -375 32 -158 1 -211 -3
-278 -18 -98 -22 -102 -28 -102 -137 0 -162 -155 -640 -333 -1029 -42 -91 -57
-115 -72 -113 -11 1 -53 -10 -94 -24 -136 -45 -192 -23 -367 148 -67 66 -126
119 -131 119 -18 0 -75 82 -75 106 0 21 -13 31 -83 64 -45 21 -171 98 -281
171 -109 72 -233 147 -274 167 -300 139 -822 279 -1230 329 -201 24 -665 24
-870 0 -496 -60 -1022 -202 -1443 -391 -32 -15 -63 -24 -68 -21 -35 22 34 277
176 650 125 328 140 387 150 595 7 140 25 233 49 247 8 4 35 34 60 65 64 79
174 169 259 213 40 20 101 63 137 94 36 31 86 72 112 90 56 40 82 95 73 152
-10 61 -25 73 -97 79 l-63 5 -12 70 c-16 89 -100 258 -131 263 -26 4 -40 -22
-49 -85 -12 -97 -33 -105 -91 -35 -81 98 -89 121 -95 277 -7 199 -34 259 -106
234 -56 -20 -77 -91 -56 -192 16 -78 36 -120 80 -167 17 -19 44 -57 60 -84 15
-26 51 -77 81 -112 39 -46 54 -72 54 -93 0 -38 11 -45 84 -45 60 -1 60 -1 83
-41 12 -22 28 -64 34 -94 15 -71 -1 -106 -75 -161 -31 -22 -62 -54 -71 -70 -8
-16 -48 -54 -88 -84 -40 -30 -108 -91 -150 -135 -43 -46 -84 -81 -95 -81 -10
0 -27 -9 -37 -20 -63 -69 -92 32 -120 407 -21 292 -50 398 -132 479 -20 20
-51 42 -69 50 -30 13 -38 12 -79 -8 -57 -28 -58 -44 -5 -129 73 -115 103 -186
96 -223 -10 -51 -43 -88 -75 -84 -20 2 -33 16 -57 62 -56 104 -69 192 -68 441
0 121 5 238 10 260 9 39 13 42 153 115 81 42 166 95 195 121 28 25 62 49 74
53 53 17 201 91 290 145 54 32 207 133 342 223 l245 165 74 6 c41 3 209 3 373
0 l299 -6 30 29 30 29 188 -3 c210 -4 253 5 293 60 42 60 86 70 378 88 146 9
274 15 285 13 11 -3 50 -24 86 -48z m-746 -3506 c326 -45 610 -116 865 -216
116 -45 325 -148 368 -182 l24 -18 -29 -51 -28 -51 58 -58 c41 -42 57 -66 57
-85 0 -16 13 -42 30 -61 32 -36 39 -67 17 -67 -8 0 -20 11 -27 25 -15 28 -81
62 -139 71 -47 7 -52 -4 -23 -47 77 -115 82 -124 82 -162 0 -53 13 -73 75
-112 30 -19 57 -40 60 -46 4 -6 -5 -23 -19 -38 -50 -52 -33 -80 75 -128 67
-31 112 -74 107 -102 -3 -12 -15 -16 -46 -14 -39 2 -42 0 -42 -25 1 -35 24
-63 82 -96 69 -40 70 -64 5 -80 -36 -8 -54 -47 -39 -80 8 -18 26 -29 69 -41
32 -9 64 -18 71 -20 7 -3 17 -17 23 -32 13 -36 25 -43 74 -43 61 0 71 10 50
53 -18 39 -44 60 -87 71 -30 7 -37 33 -12 43 9 3 42 -2 75 -11 76 -21 92 -20
114 4 16 18 17 25 5 79 l-13 60 36 33 c26 25 40 51 56 108 28 99 60 162 91
177 29 14 50 2 50 -29 0 -12 5 -18 13 -15 41 15 145 50 229 76 54 17 114 42
135 56 21 13 47 31 58 38 16 11 45 12 135 6 63 -4 129 -13 145 -19 40 -15 75
-49 75 -72 0 -15 -9 -18 -62 -18 -35 0 -124 -7 -198 -15 -74 -8 -158 -15 -187
-15 -48 0 -54 -3 -92 -46 -47 -53 -94 -167 -112 -269 -11 -66 -8 -201 7 -238
3 -10 30 -29 60 -43 49 -23 95 -68 122 -120 6 -11 27 -65 48 -120 20 -54 40
-103 45 -108 16 -18 9 -54 -16 -92 -14 -20 -25 -43 -25 -50 0 -28 -20 -12 -60
45 -30 46 -40 70 -40 100 0 55 -26 117 -60 141 -62 44 -108 7 -51 -41 41 -34
50 -74 39 -169 -11 -91 -6 -121 28 -165 32 -43 48 -44 161 -9 175 53 194 107
120 339 -24 78 -48 165 -52 195 -4 30 -12 61 -17 68 -6 7 -38 27 -71 44 -91
49 -114 99 -82 176 12 28 110 167 166 236 4 4 30 3 59 -3 28 -6 104 -16 168
-21 152 -13 220 -27 231 -48 5 -9 12 -44 16 -77 4 -33 26 -148 50 -255 24
-107 49 -233 56 -279 21 -150 -2 -308 -61 -408 -10 -18 -48 -68 -83 -110 -86
-104 -101 -134 -92 -189 6 -45 8 -43 -53 -91 -15 -12 -25 -34 -31 -70 -7 -44
-16 -61 -63 -112 -31 -32 -59 -72 -63 -88 -3 -15 -12 -31 -18 -35 -7 -4 -53
-8 -104 -8 -88 0 -93 1 -118 28 -14 15 -40 55 -57 89 -17 34 -39 65 -49 68
-16 5 -19 17 -19 69 0 58 -4 69 -55 153 -53 88 -74 147 -75 210 0 17 -21 94
-46 170 -80 243 -95 318 -101 503 l-5 165 40 75 c22 41 43 91 47 111 9 47 -17
112 -42 107 -15 -3 -17 -12 -15 -60 4 -53 0 -65 -42 -142 -27 -49 -55 -87 -66
-91 -11 -4 -24 -14 -29 -23 -17 -33 -31 -162 -31 -290 0 -247 45 -417 214
-801 42 -95 76 -175 76 -178 0 -3 20 -27 44 -54 57 -63 91 -124 118 -213 19
-59 22 -94 22 -201 -1 -207 -48 -388 -161 -620 -45 -94 -55 -107 -151 -194
-239 -218 -553 -585 -841 -986 -52 -71 -106 -141 -121 -155 -15 -14 -82 -88
-147 -165 -498 -582 -1034 -963 -1655 -1177 -167 -57 -178 -69 -107 -113 22
-15 39 -31 36 -38 -2 -7 -28 -13 -64 -15 -82 -4 -156 22 -325 114 -161 87
-214 111 -287 128 -59 13 -63 18 -79 84 -11 51 -1 60 49 43 47 -16 84 -13 103
8 16 18 14 21 -51 77 -78 66 -222 163 -303 204 -72 36 -125 103 -299 375 -74
116 -201 311 -281 435 -198 304 -263 413 -332 557 -68 143 -118 289 -150 440
-33 157 -33 443 0 628 31 173 93 348 140 395 65 65 65 101 1 232 -22 47 -39
97 -39 117 0 19 -25 108 -55 198 -97 286 -110 350 -110 553 0 228 -1 225 108
216 87 -8 160 -19 400 -60 82 -14 155 -26 163 -26 19 0 19 62 0 99 -33 63
-121 114 -244 142 -26 6 -125 21 -220 35 -96 13 -178 26 -183 29 -12 8 -12
283 1 420 18 195 45 325 112 545 61 202 75 226 155 286 117 87 159 113 303
183 216 106 492 193 906 286 239 54 244 54 244 18 0 -23 -37 -65 -200 -226
-197 -196 -227 -237 -178 -237 16 0 84 60 228 204 l205 203 98 32 c137 44 262
61 464 61 l171 0 21 36 21 35 58 -6 c31 -4 120 -15 197 -26z m1385 -505 c25
-26 80 -67 123 -92 140 -81 206 -158 207 -239 0 -70 -39 -48 -190 107 -70 71
-139 134 -154 139 -26 10 -66 81 -66 117 0 28 36 13 80 -32z m498 -473 c20
-12 10 -46 -15 -49 -14 -2 -23 3 -28 17 -11 35 12 52 43 32z m-1520 -5386 c3
-20 -11 -38 -250 -316 -59 -69 -136 -163 -170 -209 -73 -96 -127 -133 -295
-201 -188 -75 -260 -142 -285 -261 -15 -71 -24 -78 -123 -85 -58 -5 -78 -2
-96 11 -13 9 -34 16 -46 16 -35 0 -43 30 -44 158 -2 127 8 172 48 234 36 54
87 61 212 28 97 -26 241 -27 241 -1 0 9 -5 22 -11 28 -5 5 -18 25 -27 44 -13
26 -30 38 -71 54 -61 23 -70 35 -45 60 15 14 29 16 97 10 l79 -7 37 36 c23 22
74 53 129 76 69 30 104 52 139 89 38 38 63 53 118 71 110 37 148 56 241 126
89 66 117 75 122 39z m-3757 -591 c33 -15 59 -30 59 -34 0 -12 81 -100 104
-112 11 -7 45 -15 75 -18 54 -5 55 -6 69 -47 18 -56 79 -108 144 -124 68 -16
248 -6 363 20 50 12 131 26 180 32 229 27 327 45 564 105 311 79 451 104 587
104 120 0 174 -16 174 -50 0 -29 -39 -44 -185 -70 -85 -15 -135 -29 -171 -50
-38 -21 -74 -31 -145 -39 -227 -27 -429 -122 -429 -201 0 -37 15 -48 96 -68
95 -23 91 -38 -21 -80 -69 -26 -109 -35 -174 -37 -46 -2 -89 -9 -95 -15 -15
-15 3 -41 40 -59 39 -20 193 -26 263 -12 77 17 220 89 319 162 l82 60 0 75 c0
92 16 114 85 114 26 0 74 12 112 27 77 31 144 36 168 12 62 -62 -15 -229 -105
-229 -12 0 -25 -10 -32 -24 -7 -17 -35 -35 -92 -60 -45 -19 -183 -86 -306
-149 -351 -177 -505 -220 -693 -192 -55 8 -133 15 -173 15 -69 0 -74 1 -120
40 -27 22 -74 50 -104 61 -67 25 -77 34 -250 229 -75 85 -166 182 -201 214
-35 33 -71 69 -79 81 -58 85 -147 177 -196 201 -100 49 -144 15 -84 -67 46
-64 39 -89 -30 -112 -76 -25 -240 -37 -365 -26 -110 9 -206 35 -213 57 -2 7
14 30 35 51 32 32 57 44 143 71 60 18 129 48 161 69 31 20 71 45 90 56 18 11
42 26 54 32 12 8 60 13 129 13 96 0 115 -3 167 -26z"/>
<path d="M7885 11988 c-56 -30 -57 -62 -10 -232 30 -110 70 -292 90 -408 7
-45 22 -48 57 -10 73 78 98 237 62 410 -37 183 -120 284 -199 240z"/>
<path d="M8985 11961 c-63 -36 -150 -124 -193 -193 -41 -69 -102 -215 -102
-248 0 -44 -87 -290 -109 -311 -11 -11 -21 -24 -21 -29 0 -14 -31 -41 -40 -35
-9 5 -12 28 -31 230 -6 66 -17 154 -25 195 -16 89 -63 240 -74 240 -18 0 -62
-45 -83 -83 -20 -39 -22 -60 -27 -287 -6 -242 -6 -246 -33 -297 -15 -29 -27
-68 -27 -86 0 -20 -7 -40 -17 -48 -9 -8 -22 -28 -30 -46 -28 -67 -9 -123 42
-123 26 0 68 60 80 115 13 57 46 115 65 115 26 0 28 -12 11 -104 -17 -102 -6
-139 45 -144 48 -5 120 81 194 231 33 67 60 129 60 139 0 31 100 331 124 372
13 23 60 84 103 136 120 143 163 214 163 265 0 32 -14 31 -75 -4z"/>
<path d="M6977 11824 l-47 -54 15 -38 c30 -70 97 -173 170 -260 82 -98 147
-161 388 -381 146 -133 170 -151 183 -140 13 10 15 25 11 65 -7 70 -35 129
-89 189 -24 28 -68 89 -96 137 -97 162 -231 320 -380 451 -52 45 -97 83 -100
84 -4 1 -28 -23 -55 -53z"/>
<path d="M6416 11708 c-55 -204 -56 -351 -3 -429 27 -39 74 -76 84 -65 4 4 8
87 8 184 0 165 2 180 24 225 13 27 30 51 37 54 15 6 19 33 5 33 -5 0 -16 16
-25 35 -23 48 -43 65 -75 65 -27 0 -29 -4 -55 -102z"/>
<path d="M10120 11460 c-20 -5 -105 -43 -190 -84 -88 -44 -179 -81 -212 -87
-48 -10 -59 -16 -64 -35 -6 -25 -53 -71 -121 -119 -48 -33 -83 -95 -83 -143 0
-26 4 -32 22 -32 36 0 99 36 182 105 89 74 107 85 152 95 92 21 61 -40 -130
-255 -162 -182 -206 -274 -197 -412 1 -21 6 -23 57 -23 44 0 69 -7 121 -35 36
-19 74 -35 84 -35 13 0 29 19 49 60 76 150 205 316 439 564 72 76 131 144 131
151 0 7 23 27 50 44 28 17 50 35 50 40 0 18 -29 19 -66 1 -22 -10 -63 -26 -92
-35 -33 -10 -81 -39 -125 -75 -93 -74 -135 -97 -143 -76 -7 19 43 93 92 136
21 18 65 45 98 61 64 30 68 37 83 124 4 25 0 33 -26 48 -37 21 -112 30 -161
17z"/>
<path d="M10813 11301 c-28 -11 -75 -32 -104 -47 -57 -31 -189 -149 -189 -168
0 -7 -36 -43 -79 -80 -99 -83 -252 -243 -340 -355 -36 -46 -87 -111 -114 -144
-40 -51 -45 -63 -34 -74 7 -8 20 -11 28 -8 8 4 49 53 92 111 129 171 318 372
428 457 36 27 41 28 225 37 104 6 222 17 262 26 87 19 156 63 186 117 l21 38
-43 39 c-23 21 -64 45 -89 54 -64 22 -184 20 -250 -3z"/>
<path d="M7004 11055 c-7 -19 -14 -47 -14 -62 1 -42 33 -105 70 -136 27 -23
41 -27 79 -25 l46 3 3 84 c2 70 0 85 -15 97 -29 21 -130 74 -142 74 -7 0 -19
-16 -27 -35z"/>
<path d="M6717 10993 c-14 -32 -34 -89 -44 -126 l-18 -69 33 -29 c43 -38 76
-37 117 4 33 33 65 115 65 165 0 61 -48 112 -104 112 -19 0 -28 -11 -49 -57z"/>
<path d="M8723 11019 c-77 -38 -132 -126 -133 -212 0 -60 14 -66 76 -36 81 41
216 213 200 254 -8 23 -93 19 -143 -6z"/>
<path d="M7260 10919 c0 -39 1 -40 33 -37 29 3 32 6 35 41 3 36 3 37 -32 37
-35 0 -36 -1 -36 -41z"/>
<path d="M8021 10924 c-27 -34 -27 -36 10 -63 l31 -23 24 28 c29 36 29 41 2
65 -31 25 -43 24 -67 -7z"/>
<path d="M9183 10888 c-16 -24 -44 -69 -62 -100 -27 -48 -38 -58 -66 -64 -30
-5 -109 -2 -160 7 -16 3 -20 -1 -20 -21 0 -20 8 -28 35 -37 19 -7 53 -12 75
-13 22 0 49 -7 60 -16 11 -8 51 -24 90 -35 l70 -21 26 32 c32 38 57 112 65
196 7 61 6 61 -28 88 -19 14 -39 26 -45 26 -5 0 -23 -19 -40 -42z"/>
<path d="M10853 10900 c-58 -12 -115 -43 -154 -85 -18 -19 -72 -56 -118 -83
-47 -26 -108 -68 -137 -94 -43 -40 -58 -48 -91 -48 -37 0 -39 -2 -56 -49 -17
-50 -44 -78 -149 -158 -54 -41 -88 -92 -88 -131 0 -24 51 -69 87 -78 65 -17
167 3 338 65 126 47 188 64 240 68 70 5 125 -7 125 -27 0 -17 -76 -66 -147
-95 -213 -87 -299 -139 -327 -194 -19 -37 -27 -93 -17 -110 11 -17 96 -12 393
25 286 35 486 46 616 33 177 -16 167 -39 -33 -75 -158 -29 -224 -53 -261 -97
-24 -29 -25 -32 -9 -44 50 -36 168 -29 369 22 109 27 158 35 225 34 105 -1
166 -17 166 -44 0 -33 -174 -89 -410 -130 -77 -13 -187 -27 -245 -30 -93 -6
-112 -4 -170 15 -90 31 -198 33 -237 4 -37 -27 -41 -59 -11 -75 44 -24 114
-27 323 -13 364 24 464 44 814 163 203 69 264 101 246 131 -4 7 -40 27 -79 45
-39 18 -78 40 -86 50 -8 10 -17 45 -20 79 l-5 61 -50 7 c-173 26 -343 39 -525
39 -184 1 -217 -2 -323 -25 -130 -29 -169 -31 -215 -15 -57 20 -48 36 46 83
141 70 332 134 522 176 52 11 105 22 118 25 27 7 28 20 2 88 -54 143 -204 201
-460 176 -63 -6 -209 -28 -325 -50 -115 -21 -229 -39 -253 -39 -40 0 -43 2
-37 23 20 65 190 179 315 210 89 22 181 69 216 109 25 31 29 44 17 51 -18 11
-101 15 -140 7z"/>
<path d="M11742 9573 c-34 -3 -45 -10 -57 -33 -22 -43 -19 -84 11 -119 35 -42
122 -67 309 -90 173 -22 175 -21 175 59 0 83 -65 147 -170 169 -56 12 -211 20
-268 14z"/>
<path d="M10380 9388 c0 -16 32 -54 107 -126 124 -118 140 -130 150 -106 4 11
-28 49 -118 135 -68 65 -127 119 -131 119 -5 0 -8 -10 -8 -22z"/>
<path d="M10170 9210 c0 -7 7 -27 15 -45 16 -32 37 -47 84 -60 22 -7 23 -5 17
21 -4 16 -19 41 -34 56 -30 30 -82 48 -82 28z"/>
<path d="M10494 8955 c-19 -49 42 -99 91 -77 34 16 31 43 -8 70 -38 25 -75 29
-83 7z"/>
<path d="M10306 8584 c-9 -23 -7 -77 3 -92 5 -8 23 -12 47 -10 42 3 44 8 28
86 -5 28 -10 32 -39 32 -21 0 -35 -6 -39 -16z"/>
<path d="M7247 8816 c-21 -8 -46 -21 -56 -30 -9 -8 -50 -29 -90 -46 -179 -73
-359 -198 -528 -367 -102 -100 -123 -136 -87 -150 10 -4 43 22 102 79 98 95
472 359 553 389 27 11 75 19 107 19 65 0 109 21 132 64 13 26 13 29 -5 42 -24
18 -78 17 -128 0z"/>
<path d="M7120 8547 c-179 -68 -317 -165 -485 -339 -128 -132 -255 -295 -255
-326 0 -38 28 -25 73 34 59 78 712 600 761 610 38 7 62 27 51 44 -11 18 -57
10 -145 -23z"/>
<path d="M7230 8329 c-124 -61 -254 -130 -291 -154 -88 -59 -164 -142 -199
-217 -31 -67 -50 -168 -32 -168 17 0 311 139 387 183 39 22 97 61 130 87 l60
47 175 22 c217 26 272 27 308 3 15 -10 36 -23 47 -28 11 -6 23 -26 26 -43 7
-35 61 -97 92 -107 10 -3 24 -1 30 5 6 6 21 11 34 11 20 0 23 5 23 44 0 45 -8
60 -87 156 -32 39 -44 63 -49 100 -6 46 -10 51 -63 85 -67 43 -97 42 -162 -5
-63 -45 -96 -39 -129 22 -19 37 -54 69 -73 68 -1 0 -103 -50 -227 -111z"/>
<path d="M6335 8074 c-19 -45 -19 -54 -1 -54 19 0 35 22 42 58 9 46 -21 43
-41 -4z"/>
<path d="M10758 7563 c-24 -69 -14 -202 27 -363 42 -161 56 -322 36 -396 -14
-51 -88 -154 -111 -154 -20 0 -91 -74 -114 -118 -37 -71 -37 -219 0 -308 12
-28 20 -34 43 -34 40 0 88 43 101 88 5 20 13 93 16 162 7 156 13 179 66 256
31 45 51 64 71 68 111 23 96 492 -24 728 -21 41 -76 108 -89 108 -5 0 -14 -17
-22 -37z"/>
<path d="M7287 7200 c-63 -11 -170 -62 -224 -106 -75 -61 -213 -282 -213 -341
0 -20 4 -24 26 -21 22 2 34 16 61 68 61 116 70 127 139 173 46 30 107 57 184
82 137 44 181 65 210 102 20 26 20 28 3 34 -34 12 -138 17 -186 9z"/>
<path d="M8335 7123 c-95 -21 -195 -82 -195 -119 0 -38 117 -46 205 -13 59 22
135 85 135 111 0 24 -80 36 -145 21z"/>
<path d="M7479 6956 c-13 -13 -50 -36 -82 -51 -43 -20 -91 -59 -175 -142 -119
-116 -171 -153 -217 -153 -37 0 -92 -25 -104 -48 -6 -12 -11 -34 -11 -51 0
-30 2 -31 44 -31 35 0 50 6 73 28 15 15 50 39 78 52 31 15 96 69 171 141 143
137 179 159 264 159 101 0 162 51 109 91 -47 35 -117 38 -150 5z"/>
<path d="M6532 6855 c-70 -59 -85 -180 -39 -313 52 -148 153 -238 239 -213 21
7 38 16 38 22 0 6 -32 84 -70 174 -42 98 -79 202 -92 259 -13 57 -27 96 -34
96 -7 0 -26 -11 -42 -25z"/>
<path d="M5867 6693 c-13 -13 -6 -68 14 -112 18 -40 18 -46 4 -60 -13 -13 -23
-13 -92 8 -169 51 -206 51 -257 3 -17 -16 -48 -35 -68 -41 -54 -18 -88 -48
-114 -105 -29 -63 -32 -109 -6 -104 9 2 18 12 20 24 2 11 31 48 65 81 l62 60
121 -7 c133 -8 210 -33 267 -88 56 -53 92 -157 63 -181 -8 -7 -70 -21 -138
-32 -141 -22 -220 -43 -263 -69 -16 -10 -47 -21 -67 -24 -48 -9 -73 -43 -87
-121 -14 -76 -14 -85 2 -85 8 0 28 -7 46 -16 25 -12 38 -14 59 -6 15 6 43 14
62 17 19 4 49 15 65 25 17 10 62 21 100 25 58 6 73 4 84 -9 20 -23 0 -99 -60
-227 -75 -161 -79 -203 -44 -380 15 -79 29 -176 29 -215 l0 -70 -53 -62 c-29
-34 -61 -64 -71 -67 -13 -4 -19 -19 -22 -64 -4 -51 -11 -70 -56 -136 -67 -100
-68 -126 -8 -215 53 -79 251 -294 295 -321 53 -32 63 -27 55 34 -9 72 -34 121
-99 195 -62 70 -67 94 -30 135 29 30 34 31 125 16 36 -5 97 -7 137 -4 l71 7
87 135 c99 153 125 219 125 309 l0 63 76 36 c92 42 130 45 145 11 9 -20 7 -34
-15 -81 -14 -32 -26 -68 -26 -81 0 -53 172 -42 384 26 71 22 160 46 198 52
l70 12 125 132 c68 73 155 160 193 193 l69 61 143 7 c219 11 264 8 320 -20
l49 -24 14 21 c22 31 18 65 -16 124 -40 71 -59 77 -182 58 -177 -29 -185 -27
-250 58 -33 42 -59 46 -119 15 -60 -30 -102 -21 -214 46 -51 31 -112 61 -134
66 -50 11 -104 -1 -108 -25 -5 -25 61 -84 148 -131 88 -47 160 -112 160 -144
0 -31 -34 -93 -71 -130 -63 -63 -145 -92 -379 -131 -96 -16 -202 -37 -235 -46
-83 -22 -90 -22 -93 3 -5 32 24 80 58 98 16 8 67 22 111 31 90 17 200 67 238
108 14 14 30 26 36 26 6 0 24 13 39 29 l28 30 -32 78 c-50 121 -77 169 -106
192 -25 20 -29 20 -43 6 -22 -22 -18 -89 9 -150 24 -56 36 -130 26 -169 -3
-14 -18 -32 -33 -39 -23 -13 -31 -12 -67 4 -59 27 -162 25 -280 -5 -133 -34
-150 -44 -154 -85 -2 -23 4 -44 22 -70 34 -48 33 -73 -3 -94 -46 -27 -108 -46
-117 -37 -5 5 -38 10 -74 12 -62 3 -66 4 -82 36 -22 46 -25 48 -47 28 -15 -13
-34 -16 -87 -14 l-69 3 -27 55 c-15 30 -33 90 -40 132 -20 134 6 250 127 568
83 217 106 303 112 429 6 114 -5 183 -43 269 -18 40 -31 56 -57 67 -18 8 -39
21 -47 29 -12 16 -61 22 -73 9z m-259 -750 c2 -23 -3 -35 -20 -47 -44 -31 -73
-14 -61 36 9 36 24 49 52 46 21 -2 27 -9 29 -35z m475 -965 c35 -27 -9 -135
-112 -277 -33 -46 -63 -92 -66 -102 -4 -10 -18 -22 -33 -26 -15 -3 -33 -12
-40 -20 -31 -30 -60 -6 -73 60 -4 23 -5 90 -2 149 l6 108 76 42 c93 53 107 59
151 68 54 12 75 11 93 -2z"/>
<path d="M8173 6689 c-18 -5 -33 -14 -33 -18 0 -18 60 -59 107 -75 146 -47
305 -39 326 19 20 51 -283 108 -400 74z"/>
<path d="M7602 6604 c-49 -53 -131 -93 -242 -119 -41 -10 -81 -22 -87 -28 -18
-14 -16 -46 3 -54 20 -8 141 18 215 46 117 44 221 140 198 182 -16 30 -41 22
-87 -27z"/>
<path d="M8090 5643 c0 -31 6 -43 28 -60 84 -62 142 -126 163 -181 20 -51 23
-77 25 -239 2 -170 14 -276 34 -288 13 -8 76 71 103 128 133 281 -29 641 -302
674 l-51 6 0 -40z"/>
<path d="M7596 5181 c-119 -101 -377 -232 -691 -351 -148 -56 -321 -127 -384
-156 -121 -57 -275 -155 -353 -223 -25 -23 -52 -41 -59 -41 -20 0 -78 -49 -94
-80 -8 -16 -15 -55 -15 -90 0 -69 10 -75 68 -40 37 23 65 65 87 131 22 66 88
115 323 242 156 84 252 127 459 206 145 55 310 123 367 150 187 88 400 242
394 284 -5 37 -31 29 -102 -32z"/>
<path d="M9520 4920 c0 -12 -12 -44 -26 -72 -22 -43 -25 -59 -19 -107 l6 -56
-279 -314 c-212 -239 -290 -320 -324 -337 -58 -30 -75 -49 -58 -69 19 -23 38
-18 138 35 296 157 481 347 557 573 14 41 25 85 25 96 0 12 13 33 30 48 36 32
50 77 50 161 l0 62 -50 0 c-44 0 -50 -3 -50 -20z"/>
<path d="M6111 3903 c-32 -119 -39 -280 -17 -413 37 -227 125 -365 296 -461
234 -133 305 -154 493 -147 138 6 213 25 342 90 208 104 356 221 648 516 152
153 188 194 185 213 -5 37 -36 35 -77 -4 -20 -19 -45 -39 -56 -45 -55 -28
-1440 -572 -1456 -572 -29 0 -106 106 -139 192 -28 73 -45 149 -105 476 -23
127 -29 146 -53 167 -37 34 -50 31 -61 -12z"/>
<path d="M2745 6456 c-286 -95 -453 -168 -582 -257 -70 -48 -163 -140 -163
-160 0 -25 28 -24 55 1 16 15 83 33 266 70 134 28 333 69 442 91 143 30 202
38 210 30 8 -8 0 -26 -29 -67 -81 -119 -213 -193 -412 -234 -76 -15 -87 -20
-90 -40 -2 -14 6 -33 24 -51 23 -24 26 -34 21 -69 -7 -57 -57 -134 -165 -257
-124 -141 -173 -213 -144 -213 18 0 60 -138 66 -215 15 -175 87 -559 109 -582
9 -9 67 15 103 42 42 32 75 102 120 250 102 342 111 366 148 384 21 10 63 13
150 11 67 -1 132 -2 146 -2 114 -1 376 -50 440 -83 92 -48 388 -253 456 -316
56 -52 148 -103 170 -95 20 8 17 53 -7 103 -22 46 -79 98 -144 131 -43 21 -48
25 -267 203 -79 64 -157 123 -173 132 -47 24 -175 47 -298 54 -80 4 -122 11
-147 24 -30 17 -52 18 -182 14 l-148 -5 -45 -49 c-31 -33 -45 -57 -46 -77 0
-16 -17 -76 -37 -134 -37 -104 -37 -105 -78 -118 -76 -24 -105 1 -150 129 -15
41 -33 83 -40 94 -8 11 -14 34 -14 52 0 27 13 45 78 110 43 43 117 132 165
199 48 66 113 152 145 190 65 78 181 166 251 191 44 15 48 20 94 113 50 103
59 154 32 200 -8 14 -14 45 -15 70 0 76 -17 116 -67 159 -25 23 -49 41 -52 40
-3 0 -91 -29 -196 -63z"/>
<path d="M1157 6503 c-4 -3 -7 -15 -7 -26 0 -10 -17 -38 -38 -62 -21 -24 -51
-67 -66 -96 -16 -30 -55 -77 -86 -106 -100 -92 -164 -249 -125 -309 23 -36 13
-56 -27 -52 -33 3 -33 2 -35 -42 -2 -25 -10 -126 -20 -225 -24 -257 -22 -503
4 -625 24 -108 60 -210 74 -210 17 0 80 -147 86 -199 6 -55 -8 -91 -37 -91
-29 0 -69 21 -75 40 -3 9 -25 26 -50 38 -37 18 -46 28 -55 64 -7 23 -25 76
-41 117 -17 40 -36 106 -44 146 -15 82 -40 135 -95 210 -27 35 -40 65 -44 100
-12 88 -34 150 -111 306 l-74 152 -53 19 c-162 59 -183 57 -204 -12 -10 -33
-11 -52 -3 -71 8 -20 5 -58 -11 -160 -24 -143 -23 -198 4 -374 42 -265 115
-472 281 -802 68 -133 133 -274 145 -314 24 -79 59 -124 106 -134 16 -3 36
-10 44 -14 28 -14 177 -223 190 -265 9 -29 33 -61 84 -111 39 -39 79 -80 88
-91 10 -11 47 -119 83 -240 128 -427 147 -511 146 -648 -1 -131 10 -186 79
-401 82 -251 100 -321 100 -388 0 -102 -11 -116 -176 -237 -87 -63 -167 -149
-253 -268 -29 -40 -79 -98 -112 -129 -87 -83 -125 -150 -143 -250 -5 -29 -3
-33 18 -33 29 0 96 48 129 92 14 18 39 62 57 98 109 216 362 490 454 490 61 0
21 -64 -158 -251 -134 -140 -186 -216 -194 -284 -4 -42 -3 -45 18 -45 13 0 42
18 66 40 92 85 121 37 93 -153 -13 -87 -2 -141 36 -177 21 -20 29 -22 47 -12
13 6 32 12 43 14 40 6 49 51 56 268 8 262 19 296 162 537 50 85 54 97 50 140
-9 97 -46 252 -110 452 -61 196 -72 248 -118 545 -9 60 -45 223 -79 361 -96
383 -156 514 -296 656 -56 56 -95 88 -115 92 -23 5 -45 27 -100 102 -38 52
-82 107 -97 122 -15 15 -28 37 -28 50 0 41 -26 87 -73 131 -26 23 -50 42 -55
42 -32 0 -69 125 -232 789 -183 742 -182 731 -121 731 72 0 121 -89 186 -338
62 -239 105 -316 199 -362 41 -19 46 -26 80 -115 53 -139 63 -180 47 -199 -7
-9 -40 -25 -72 -37 -64 -23 -77 -35 -61 -51 7 -7 31 -3 76 12 53 17 70 19 81
10 8 -7 30 -18 49 -24 37 -13 203 -182 231 -236 9 -18 19 -56 22 -84 l5 -52
-66 -53 c-70 -55 -93 -88 -82 -118 6 -15 13 -11 49 29 50 55 139 121 187 138
19 6 135 18 258 25 176 11 230 17 259 32 91 45 26 75 -172 80 -77 2 -150 6
-163 9 -17 3 -36 33 -84 132 -74 154 -107 204 -161 243 -49 35 -101 146 -119
249 -6 36 -13 265 -15 514 -5 417 -4 451 13 490 10 22 29 52 43 66 38 40 99
177 120 271 16 76 44 140 84 190 32 41 92 50 170 23 69 -23 77 -40 77 -163 0
-110 -33 -336 -53 -359 -6 -8 -37 -32 -69 -53 -32 -22 -58 -44 -58 -50 0 -5
11 -14 24 -19 33 -12 46 -39 46 -98 0 -39 5 -53 25 -72 l25 -23 0 -212 c0
-212 0 -212 -26 -251 -14 -21 -32 -44 -40 -51 -13 -9 -6 -17 40 -48 107 -71
173 -163 312 -437 l95 -188 104 0 c60 0 113 5 123 11 44 28 323 -87 350 -143
7 -15 36 -52 65 -82 45 -48 58 -56 89 -56 36 0 68 20 68 43 0 41 -83 121 -152
147 -18 6 -82 36 -143 66 -69 34 -138 60 -185 69 -101 21 -127 32 -179 80
-111 102 -154 235 -186 575 -9 96 -20 183 -26 192 -19 37 -6 81 87 284 68 147
109 224 140 261 24 28 44 61 44 72 0 38 -36 23 -87 -36 -163 -190 -252 -370
-253 -511 0 -24 -5 -52 -11 -63 -5 -11 -17 -59 -25 -106 -9 -48 -20 -95 -25
-105 -13 -25 -49 -23 -90 5 l-34 23 -1 234 c-1 159 3 254 12 295 22 102 28
192 14 225 -10 24 -8 53 10 164 17 108 20 167 18 288 -4 147 -5 152 -29 170
-46 33 -220 63 -242 41z"/>
<path d="M2925 4851 c-10 -33 20 -87 69 -120 55 -38 76 -75 79 -140 3 -61 -16
-84 -99 -122 -33 -15 -67 -35 -75 -45 -12 -15 -11 -19 11 -33 85 -54 134 -145
175 -326 71 -313 98 -395 131 -395 9 0 31 -13 50 -29 48 -43 105 -74 262 -145
172 -78 220 -110 237 -156 7 -19 35 -90 64 -158 107 -257 184 -379 285 -453
61 -45 66 -41 66 49 0 106 -18 159 -116 349 -46 89 -84 171 -84 181 0 10 8 36
19 58 10 21 31 77 46 123 15 47 37 94 49 105 l21 21 -32 42 c-108 144 -143
497 -78 776 8 34 13 62 12 64 -2 1 -35 9 -74 17 -54 12 -79 13 -102 5 -37 -13
-36 7 -21 -379 10 -249 21 -333 60 -437 22 -60 27 -161 9 -196 -19 -37 -72
-87 -92 -87 -11 0 -46 16 -78 36 -33 20 -99 53 -148 74 -123 53 -199 93 -248
129 l-42 31 5 77 c8 101 -13 223 -72 418 -51 169 -62 251 -45 322 17 66 75
153 103 153 37 0 272 -81 294 -101 23 -22 54 -25 54 -6 0 19 -47 61 -113 100
-64 39 -167 63 -222 53 -33 -7 -44 -1 -134 63 -130 94 -212 124 -226 82z"/>
<path d="M4150 4653 c-8 -3 -21 -12 -27 -21 -16 -19 -17 -88 -3 -97 6 -4 33
-1 60 5 46 11 50 14 50 41 0 18 -10 40 -25 54 -25 26 -29 27 -55 18z"/>
<path d="M10462 4000 c-97 -18 -298 -99 -316 -129 -3 -5 -78 -39 -165 -76
-149 -63 -180 -83 -165 -106 10 -17 42 -9 183 51 120 51 151 60 202 60 98 0
81 -23 -81 -109 -581 -306 -1136 -728 -1767 -1345 -199 -194 -231 -236 -181
-236 13 0 60 38 132 108 86 84 309 259 976 768 795 605 992 746 1019 730 4 -3
33 8 64 25 31 16 102 45 158 64 110 37 171 69 208 108 28 30 23 41 -31 68 -48
24 -156 33 -236 19z"/>
<path d="M12025 3814 c-39 -72 -119 -119 -320 -183 -71 -23 -152 -53 -180 -67
-56 -28 -125 -90 -125 -113 0 -8 20 -33 44 -56 64 -62 104 -69 351 -60 l204 7
23 -28 c58 -70 76 -84 111 -84 32 0 37 4 48 38 21 60 13 156 -25 309 -20 78
-36 166 -36 195 0 52 -1 54 -33 66 -44 16 -40 17 -62 -24z"/>
<path d="M1325 3779 c-4 -5 0 -18 9 -28 9 -10 16 -22 16 -27 0 -6 14 -23 31
-40 51 -47 141 -174 187 -262 l43 -82 70 0 c67 0 73 -2 160 -55 50 -30 99 -57
109 -60 9 -3 33 -29 53 -58 19 -29 85 -105 146 -170 79 -84 128 -147 168 -215
77 -132 116 -184 161 -215 59 -41 66 -37 58 34 -15 131 -70 250 -170 371 -96
115 -324 298 -373 298 -28 0 -62 16 -160 77 -63 39 -75 52 -98 100 -61 134
-168 247 -290 308 -73 36 -109 43 -120 24z"/>
<path d="M2433 3720 c-18 -4 -50 -23 -71 -42 -30 -27 -50 -36 -90 -41 -65 -8
-106 -26 -110 -51 -4 -20 -3 -20 108 3 25 6 107 10 183 11 l137 0 0 29 c0 42
-9 60 -39 75 -37 19 -81 25 -118 16z"/>
<path d="M4188 3615 l-27 -15 18 -33 c15 -27 24 -32 59 -35 43 -3 82 22 82 53
0 33 -90 53 -132 30z"/>
<path d="M9010 3253 c0 -28 16 -47 35 -40 25 10 15 51 -12 55 -17 3 -23 -2
-23 -15z"/>
<path d="M9873 3055 c-73 -25 -181 -66 -240 -91 -146 -62 -578 -282 -599 -305
-20 -22 -12 -49 16 -49 11 0 78 31 148 69 252 136 537 263 732 326 97 31 120
47 104 72 -6 9 -15 18 -20 20 -5 2 -68 -17 -141 -42z"/>
<path d="M2980 2304 c0 -29 30 -134 54 -187 12 -29 41 -74 64 -100 38 -44 42
-53 42 -101 0 -52 1 -53 33 -59 17 -3 39 -8 48 -12 12 -5 20 2 28 26 18 52 13
86 -17 121 -17 19 -36 60 -46 99 -25 95 -68 164 -123 200 -52 32 -83 37 -83
13z"/>
<path d="M2885 1010 c-72 -71 -756 -303 -1060 -358 -137 -25 -150 -29 -153
-50 -3 -19 1 -22 30 -22 72 0 283 45 498 106 172 48 356 113 562 198 180 73
206 66 120 -35 -168 -196 -273 -376 -313 -533 -10 -40 -10 -50 2 -57 28 -19
113 -3 204 38 l89 40 32 99 c46 143 77 221 152 378 62 129 65 140 48 150 -10
6 -41 26 -69 44 -66 41 -103 42 -142 2z"/>
<path d="M562 593 c-4 -10 -7 -74 -7 -143 1 -132 17 -232 61 -372 l25 -78 57
0 c50 1 59 4 77 28 18 25 20 40 17 193 -2 165 -2 167 23 197 l25 29 -45 17
c-29 12 -59 34 -86 67 -61 73 -130 102 -147 62z"/>
</g>
</svg>
